<svg xmlns="http://www.w3.org/2000/svg" enable-background="new 0 0 68 68" viewBox="0 0 68 68" id="camera-reel"><path d="M41.85701 34.0029c0-5.49268-4.46875-9.96143-9.96094-9.96143-5.49316 0-9.96191 4.46875-9.96191 9.96143s4.46875 9.96143 9.96191 9.96143C37.38826 43.96432 41.85701 39.49557 41.85701 34.0029zM31.89607 40.48337c-3.57422 0-6.48145-2.90723-6.48145-6.48047 0-3.57373 2.90723-6.48096 6.48145-6.48096 3.57324 0 6.48047 2.90723 6.48047 6.48096C38.37654 37.57614 35.46931 40.48337 31.89607 40.48337zM28.76564 45.53464l-2.91052 4.26544c3.87616 1.47412 8.20862 1.474 12.08203.00018l-2.91064-4.26569c-.99963.27179-2.04584.42975-3.13043.42975S29.76533 45.80643 28.76564 45.53464zM31.89607 15.06491c2.49792 0 4.90851.50262 7.19385 1.44305l2.86194-4.19281c-3.05914-1.42419-6.4649-2.22485-10.05579-2.22485-3.59082 0-6.99664.80066-10.05585 2.22479l2.86206 4.19293C26.98841 15.56747 29.39894 15.06491 31.89607 15.06491zM42.71913 28.94406l9.93536-6.7876c-2.17004-3.78809-5.27686-6.83008-8.91412-8.91357l-6.78296 9.93781C39.48768 24.36911 41.53144 26.41342 42.71913 28.94406zM26.83461 23.18063l-6.78314-9.93768c-3.78131 2.16711-6.81665 5.25293-8.91412 8.91266l9.93823 6.78143C22.26399 26.40958 24.30653 24.36795 26.83461 23.18063zM47.69795 40.04446c.74146-1.92169 1.13855-3.94373 1.13855-6.03961 0-2.09155-.39539-4.11462-1.13373-6.04285l-4.27319 2.91931c.2702.99707.42743 2.04016.42743 3.12158 0 1.08258-.15747 2.12689-.42828 3.12494L47.69795 40.04446z" fill="#000000"></path><path d="M31.89607 29.52194c-2.4707 0-4.48145 2.01025-4.48145 4.48096s2.01074 4.48047 4.48145 4.48047 4.48047-2.00977 4.48047-4.48047S34.36677 29.52194 31.89607 29.52194zM35.02058 22.4697l2.91492-4.27051c-3.87299-1.47272-8.20374-1.47333-12.07886.00006l2.91492 4.27039c.99792-.27075 2.04205-.42816 3.12451-.42816S34.02266 22.19894 35.02058 22.4697zM36.96217 44.82285l6.78131 9.93781c3.84882-2.20477 6.84357-5.30444 8.90948-8.90894l-9.93518-6.78705C41.53059 41.59244 39.48927 43.63455 36.96217 44.82285zM53.58253 23.94504l-4.19037 2.86273c.94153 2.28693 1.44434 4.69885 1.44434 7.19708 0 2.50336-.50549 4.91345-1.45081 7.19263l4.19537 2.86621c1.42566-3.06049 2.22711-6.46802 2.22711-10.06079C55.80818 30.41122 55.00721 27.00479 53.58253 23.94504z" fill="#000000"></path><path d="M66.80623,61.16501c-2.76001-3.81-7.70002-5.17999-14.41999-4.07001c6.38-5.65997,10.39996-13.90997,10.39996-23.08997   c0-17.04004-13.84998-30.90002-30.88995-30.90002c-17.04004,0-30.89001,13.85999-30.89001,30.90002   c0,17.02997,13.84998,30.88995,30.89001,30.88995c6.10999,0,11.79999-1.78998,16.59998-4.85999   c5.67999-1.64001,13.15997-2.57001,16.69001,2.31c0.34314,0.4632,0.97034,0.53027,1.40002,0.22003   C67.0262,62.24503,67.12624,61.61502,66.80623,61.16501z M31.89607,59.91501c-14.22723,0-25.91309-11.5896-25.91309-25.91211   c0-14.19745,11.54681-25.9126,25.91309-25.9126c14.42853,0,25.91211,11.74408,25.91211,25.9126   C57.80818,48.16013,46.32063,59.91501,31.89607,59.91501z" fill="#000000"></path><path d="M16.09639 27.96085c-.742 1.92163-1.13977 3.94525-1.13977 6.04401 0 2.09863.39771 4.12225 1.13965 6.04437l4.26855-2.91248c-.2724-1.00073-.43066-2.04803-.43066-3.13385 0-1.08447.1579-2.13055.42969-3.13013L16.09639 27.96085zM21.07716 39.07199l-9.93811 6.78082c2.13733 3.72754 5.21576 6.79187 8.90954 8.9079l6.78137-9.93781C24.30513 43.63583 22.26503 41.59641 21.07716 39.07199zM31.89607 52.93503c-2.49756 0-4.90857-.50269-7.19501-1.4436l-2.86407 4.19733c3.06006 1.42505 6.46698 2.22626 10.05908 2.22626 3.59216 0 6.99902-.80121 10.05902-2.22632l-2.86395-4.1972C36.80537 52.43228 34.39448 52.93503 31.89607 52.93503zM12.95662 34.00485c0-2.5058.50519-4.91711 1.45123-7.19617l-4.19849-2.86481c-1.42517 3.06-2.22638 6.46692-2.22638 10.05902 0 3.59326.80176 7.00116 2.22784 10.06195l4.19708-2.86365C13.46187 38.92209 12.95662 36.51028 12.95662 34.00485z" fill="#000000"></path></svg>